Coordinates
version=1
nRows=19
nColumns=27
inDegrees=yes

Units are S.I. units (second, meters, Newtons, ...)
If the header above contains a line with 'inDegrees', this indicates whether rotational values are in degrees (yes) or radians (no).

endheader
time	pelvis_rotation	pelvis_tilt	pelvis_list	pelvis_tx	pelvis_ty	pelvis_tz	hip_flexion_r	hip_adduction_r	hip_rotation_r	knee_angle_r	knee_rotation_r	knee_adduction_r	knee_angle_r_beta	ankle_angle_r	subtalar_angle_r	mtp_angle_r	hip_flexion_l	hip_adduction_l	hip_rotation_l	knee_angle_l	knee_rotation_l	knee_adduction_l	knee_angle_l_beta	ankle_angle_l	subtalar_angle_l	mtp_angle_l
      5.39500000	      8.61714696	    -38.20277120	      4.31738088	     -0.04932257	      0.46073776	     -1.16750159	    136.97552008	    -47.00623263	     28.39649354	    106.14891670	      0.00000000	      9.91573149	      1.85264809	     11.51396816	      0.00000000	      0.00000000	    131.12173920	    -33.01159304	     14.03443967	    100.93988134	      0.00000000	     -9.94018786	      1.76173328	      6.69048489	      0.00000000	      0.00000000
      5.40000000	      8.61046327	    -38.37118299	      4.34985082	     -0.05035928	      0.46251252	     -1.16748762	    136.87599705	    -46.95241045	     28.10568850	    105.90072717	      0.00000000	      9.91462367	      1.84831637	     11.43304562	      0.00000000	      0.00000000	    131.01400472	    -32.96053441	     13.83576563	    100.66170031	      0.00000000	     -9.93957584	      1.75687810	      6.59004196	      0.00000000	      0.00000000
      5.40500000	      8.65458455	    -38.55482246	      4.41679233	     -0.05142178	      0.46427298	     -1.16748456	    136.85097343	    -46.92870117	     27.88046909	    105.65053855	      0.00000000	      9.91355850	      1.84394975	     11.29442415	      0.00000000	      0.00000000	    130.90436839	    -32.87282124	     13.60488352	    100.37587992	      0.00000000	     -9.93898187	      1.75188959	      6.48292759	      0.00000000	      0.00000000
      5.41000000	      8.71643125	    -38.80800439	      4.52306783	     -0.05262602	      0.46608339	     -1.16747702	    136.92079402	    -46.85509701	     27.69878921	    105.39993505	      0.00000000	      9.91186817	      1.83957590	     11.12909652	      0.00000000	      0.00000000	    130.82887178	    -32.76005755	     13.35759990	    100.06995944	      0.00000000	     -9.93849132	      1.74655027	      6.37063602	      0.00000000	      0.00000000
      5.41500000	      8.67218266	    -38.85487447	      4.50755077	     -0.05355116	      0.46802249	     -1.16742283	    136.62789078	    -46.84784524	     27.32269450	    105.12837997	      0.00000000	      9.91115305	      1.83483637	     11.07046309	      0.00000000	      0.00000000	    130.60044680	    -32.75342263	     13.15927879	     99.76642303	      0.00000000	     -9.93773429	      1.74125256	      6.24632154	      0.00000000	      0.00000000
      5.42000000	      8.70558355	    -39.05566024	      4.58811964	     -0.05466848	      0.46992307	     -1.16741683	    136.59506963	    -46.79319485	     27.08021620	    104.86071047	      0.00000000	      9.90978466	      1.83016465	     10.98603273	      0.00000000	      0.00000000	    130.48060265	    -32.68052449	     12.90830082	     99.45904692	      0.00000000	     -9.93703480	      1.73588784	      6.16958361	      0.00000000	      0.00000000
      5.42500000	      8.72599484	    -39.19668510	      4.64118045	     -0.05573359	      0.47189465	     -1.16739603	    136.47340741	    -46.77212985	     26.79618750	    104.58362151	      0.00000000	      9.90842869	      1.82532854	     10.86644046	      0.00000000	      0.00000000	    130.29520555	    -32.60985060	     12.66734393	     99.14365824	      0.00000000	     -9.93642167	      1.73038327	      6.09952211	      0.00000000	      0.00000000
      5.43000000	      8.74189463	    -39.37379322	      4.68671296	     -0.05686860	      0.47392928	     -1.16735133	    136.36048208	    -46.73620061	     26.48806083	    104.29777842	      0.00000000	      9.90701444	      1.82033964	     10.76225100	      0.00000000	      0.00000000	    130.14894768	    -32.53595578	     12.43413829	     98.80955364	      0.00000000	     -9.93570377	      1.72455204	      5.98544974	      0.00000000	      0.00000000
      5.43500000	      8.55091937	    -39.62246330	      4.74776593	     -0.05820072	      0.47597490	     -1.16724785	    136.26622793	    -46.39694019	     26.15347469	    103.99815393	      0.00000000	      9.90517838	      1.81511020	     10.62988872	      0.00000000	      0.00000000	    130.05942702	    -32.69477922	     12.20366397	     98.47058355	      0.00000000	     -9.93503316	      1.71863590	      5.86156230	      0.00000000	      0.00000000
      5.44000000	      8.77677950	    -39.73180419	      4.80792820	     -0.05921504	      0.47806656	     -1.16725203	    136.14645649	    -46.63450787	     25.89236976	    103.70680891	      0.00000000	      9.90401213	      1.81002527	     10.53495991	      0.00000000	      0.00000000	    129.83115379	    -32.39747613	     11.93658761	     98.11913141	      0.00000000	     -9.93421438	      1.71250190	      5.76966097	      0.00000000	      0.00000000
      5.44500000	      8.79885121	    -39.92070728	      4.88164124	     -0.06042736	      0.48020100	     -1.16719474	    136.04516594	    -46.57132867	     25.60051606	    103.39635343	      0.00000000	      9.90240167	      1.80460680	     10.42822893	      0.00000000	      0.00000000	    129.66889697	    -32.33298702	     11.66792598	     97.75711102	      0.00000000	     -9.93344130	      1.70618345	      5.62411856	      0.00000000	      0.00000000
      5.45000000	      8.83091936	    -40.05197402	      4.89885794	     -0.06158467	      0.48238553	     -1.16711866	    135.83630880	    -46.58507163	     25.24182240	    103.08210992	      0.00000000	      9.90073333	      1.79912222	     10.32413443	      0.00000000	      0.00000000	    129.47282975	    -32.22154508	     11.44587030	     97.38941101	      0.00000000	     -9.93263926	      1.69976588	      5.49806539	      0.00000000	      0.00000000
      5.45500000	      8.86323209	    -40.20627594	      4.95672341	     -0.06279228	      0.48458883	     -1.16704184	    135.67902123	    -46.56159940	     24.91510901	    102.76381939	      0.00000000	      9.89911228	      1.79356700	     10.20868106	      0.00000000	      0.00000000	    129.26996070	    -32.14074196	     11.18194633	     97.01221344	      0.00000000	     -9.93186070	      1.69318254	      5.38506210	      0.00000000	      0.00000000
      5.46000000	      8.90507911	    -40.40193551	      5.02398734	     -0.06403680	      0.48678244	     -1.16697982	    135.57119408	    -46.52580452	     24.60834087	    102.43626272	      0.00000000	      9.89740466	      1.78785006	     10.08025401	      0.00000000	      0.00000000	    129.11287697	    -32.04945111	     10.91943706	     96.63679462	      0.00000000	     -9.93099767	      1.68663024	      5.27352378	      0.00000000	      0.00000000
      5.46500000	      8.91161311	    -40.55100986	      5.04776303	     -0.06525228	      0.48907604	     -1.16686455	    135.34713532	    -46.49335529	     24.22683426	    102.09931614	      0.00000000	      9.89564317	      1.78196923	      9.98027566	      0.00000000	      0.00000000	    128.91212035	    -31.97783216	     10.68051150	     96.24239202	      0.00000000	     -9.93015339	      1.67974662	      5.14687699	      0.00000000	      0.00000000
      5.47000000	      8.89110529	    -40.71899082	      5.10608608	     -0.06653369	      0.49135692	     -1.16674546	    135.16753123	    -46.38812233	     23.88068103	    101.75749146	      0.00000000	      9.89377582	      1.77600326	      9.87492634	      0.00000000	      0.00000000	    128.71570111	    -31.96343549	     10.40740705	     95.84312867	      0.00000000	     -9.92933005	      1.67277816	      5.00065030	      0.00000000	      0.00000000
      5.47500000	      8.75154782	    -40.96416424	      5.19739633	     -0.06798075	      0.49362275	     -1.16660556	    135.06653641	    -46.07954409	     23.55590282	    101.40519959	      0.00000000	      9.89149997	      1.76985461	      9.73669115	      0.00000000	      0.00000000	    128.57915243	    -32.10204508	     10.09975763	     95.44315138	      0.00000000	     -9.92855362	      1.66579724	      4.84213651	      0.00000000	      0.00000000
      5.48000000	      8.80516411	    -41.08914474	      5.26886239	     -0.06919784	      0.49593328	     -1.16647631	    134.86265385	    -46.06321898	     23.23549610	    101.06203924	      0.00000000	      9.88976257	      1.76386533	      9.65704764	      0.00000000	      0.00000000	    128.32441007	    -32.01930090	      9.80990784	     95.03271448	      0.00000000	     -9.92766952	      1.65863376	      4.72409582	      0.00000000	      0.00000000
      5.48500000	      9.04295381	    -41.16048468	      5.24511272	     -0.07025240	      0.49826033	     -1.16641630	    134.55856922	    -46.38208912	     22.81783829	    100.71687821	      0.00000000	      9.88840982	      1.75784114	      9.57461143	      0.00000000	      0.00000000	    128.08972494	    -31.65481735	      9.62807753	     94.61606856	      0.00000000	     -9.92666253	      1.65136192	      4.57010396	      0.00000000	      0.00000000
